#N canvas 649 35 682 839 12;
#X obj 207 208 sound_saver;
#X obj 192 159 adc~ 1;
#X obj 244 56 tgl 15 0 empty empty empty 17 7 0 10 -262144 -1 -1 0
1;
#X obj 207 265 tgl 20 0 empty empty empty 17 7 0 20 -257985 -1 -1 0
1;
#X obj 244 265 bng 15 250 50 0 empty empty empty 17 7 0 10 -262144
-1 -1;
#X floatatom 281 265 5 0 0 0 - - -;
#X obj 244 327 sound_player;
#X obj 207 409 chord_maker;
#X msg 69 287 0;
#X msg 58 310 5;
#X msg 53 336 7;
#X msg 103 259 symbol maj;
#X msg 111 282 symbol min;
#X msg 124 305 symbol dom7;
#X obj 207 492 dac~;
#X obj 207 459 *~ 0.4;
#X obj 49 173 loadbang;
#X msg 296 103 2;
#X msg 319 129 4;
#X msg 372 163 500;
#X msg 371 190 1000;
#X obj 432 94 vsl 15 128 100 4000 0 0 empty empty empty 0 -9 0 10 -262144
-1 -1 1300 1;
#X floatatom 429 250 5 0 0 0 - - -;
#X text 296 75 samples;
#X text 367 136 duration;
#X text 225 29 ON/OFF;
#X obj 356 353 sel 0;
#X obj 356 296 tgl 15 0 empty empty empty 17 7 0 10 -262144 -1 -1 0
1;
#N canvas 0 50 450 300 to_python 0;
#X obj 75 82 r f_root;
#X obj 75 134 outlet;
#X obj 181 78 r f_current_py;
#X obj 182 129 outlet;
#X connect 0 0 1 0;
#X connect 2 0 3 0;
#X restore 501 29 pd to_python;
#X floatatom 501 71 5 0 0 0 - - -;
#X floatatom 582 72 5 0 0 0 - - -;
#X msg 304 38 1;
#X obj 153 545 osc_receive, f 19;
#X obj 501 116 osc_send;
#X floatatom 153 599 5 0 0 0 - - -;
#X floatatom 196 599 5 0 0 0 - - -;
#X floatatom 239 599 5 0 0 0 - - -;
#X floatatom 283 599 5 0 0 0 - - -;
#X obj 479 112 bng 15 250 50 0 empty empty empty 17 7 0 10 -262144
-1 -1;
#X obj 592 166 bng 15 250 50 0 empty empty empty 17 7 0 10 -262144
-1 -1;
#X obj 79 690 pitchshift;
#X obj 78 766 dac~;
#X obj 78 733 *~ 0.4;
#X obj 178 690 pitchshift;
#X obj 276 689 pitchshift;
#X obj 375 690 pitchshift;
#X obj 496 542 delread~ delay 2000;
#X obj 499 460 delwrite~ delay 4000;
#X connect 0 0 3 0;
#X connect 0 1 4 0;
#X connect 0 2 5 0;
#X connect 1 0 0 0;
#X connect 1 0 47 0;
#X connect 2 0 0 2;
#X connect 2 0 27 0;
#X connect 4 0 6 0;
#X connect 5 0 6 1;
#X connect 6 1 7 3;
#X connect 7 0 15 0;
#X connect 8 0 7 0;
#X connect 9 0 7 0;
#X connect 10 0 7 0;
#X connect 11 0 7 1;
#X connect 12 0 7 1;
#X connect 13 0 7 1;
#X connect 15 0 14 0;
#X connect 16 0 8 0;
#X connect 16 0 11 0;
#X connect 17 0 0 3;
#X connect 17 0 6 2;
#X connect 18 0 0 3;
#X connect 18 0 6 2;
#X connect 19 0 0 4;
#X connect 20 0 0 4;
#X connect 21 0 22 0;
#X connect 22 0 0 4;
#X connect 22 0 46 0;
#X connect 26 0 7 4;
#X connect 27 0 26 0;
#X connect 28 0 29 0;
#X connect 28 1 30 0;
#X connect 29 0 33 0;
#X connect 29 0 38 0;
#X connect 30 0 33 1;
#X connect 30 0 39 0;
#X connect 31 0 0 3;
#X connect 31 0 6 2;
#X connect 32 0 34 0;
#X connect 32 1 35 0;
#X connect 32 2 36 0;
#X connect 32 3 37 0;
#X connect 34 0 40 1;
#X connect 35 0 43 1;
#X connect 36 0 44 1;
#X connect 37 0 45 1;
#X connect 40 0 42 0;
#X connect 42 0 41 0;
#X connect 43 0 42 0;
#X connect 44 0 42 0;
#X connect 45 0 42 0;
#X connect 46 0 45 0;
#X connect 46 0 44 0;
#X connect 46 0 43 0;
#X connect 46 0 40 0;
