#N canvas 205 124 949 689 12;
#X floatatom 730 382 5 0 0 0 - - -;
#X text 530 25 incoming sound;
#X text 738 409 root note;
#X floatatom 662 253 5 0 0 0 - - -;
#X text 713 111 incoming frequency;
#X floatatom 63 261 5 0 0 0 - - -;
#X text 113 106 chord;
#X text 318 103 chord type;
#X obj 273 297 bng 15 250 50 0 empty empty empty 17 7 0 10 -262144
-1 -1;
#X obj 306 297 bng 15 250 50 0 empty empty empty 17 7 0 10 -262144
-1 -1;
#X obj 441 297 bng 15 250 50 0 empty empty empty 17 7 0 10 -262144
-1 -1;
#X msg 703 153 60;
#X msg 716 180 62;
#X msg 721 205 64;
#X msg 772 302 0;
#X obj 694 327 spigot 1;
#X obj 620 363 s f_incoming;
#X obj 730 442 s f_root;
#X obj 132 272 r f_incoming;
#X obj 45 310 r f_root;
#X obj 45 375 -;
#X obj 132 312 t b f;
#X floatatom 45 344 5 0 0 0 - - -;
#X floatatom 45 407 5 0 0 0 - - -;
#X obj 45 438 +;
#X text 55 130 needs to come before frq!;
#X obj 662 281 t f f;
#X text 77 30 0 1 2 3 4 5 6 7 8 9 10 11;
#X text 78 47 1;
#X text 105 47 2;
#X text 133 47 3;
#X text 147 47 4;
#X text 175 48 5;
#X text 203 48 6;
#X text 238 48 7;
#X text 72 10 number to chord relationship;
#X msg 106 156 0;
#X msg 120 185 5;
#X msg 132 207 7;
#X floatatom 45 462 5 0 0 0 - - -;
#X obj 45 494 s relative_pitch;
#X obj 243 434 unpack 0 0 0 0;
#X obj 478 78 s~ sound_in_chord;
#X obj 243 545 shifter;
#X obj 301 545 shifter;
#X obj 368 546 shifter;
#X obj 436 546 shifter;
#X msg 382 175 symbol maj;
#X msg 243 342 0 4 7 0;
#X msg 251 368 0 3 7 0;
#X msg 391 198 symbol min;
#X obj 436 477 random_octave;
#X obj 368 513 random_octave;
#X obj 301 480 random_octave;
#X obj 243 504 random_octave;
#X obj 374 297 bng 15 250 50 0 empty empty empty 17 7 0 10 -262144
-1 -1;
#X obj 340 297 bng 15 250 50 0 empty empty empty 17 7 0 10 -262144
-1 -1;
#X msg 322 368 0 3 6 0;
#X msg 319 339 0 4 8 0;
#X obj 273 261 sel maj min aug dim maj7 dom7 aug7 min7;
#X obj 408 297 bng 15 250 50 0 empty empty empty 17 7 0 10 -262144
-1 -1;
#X msg 394 369 0 4 7 11;
#X msg 396 342 0 4 7 12;
#X obj 475 297 bng 15 250 50 0 empty empty empty 17 7 0 10 -262144
-1 -1;
#X obj 509 297 bng 15 250 50 0 empty empty empty 17 7 0 10 -262144
-1 -1;
#X msg 475 342 0 4 8 11;
#X msg 476 372 0 3 5 11;
#X msg 404 221 symbol dom7;
#X obj 63 104 inlet;
#X obj 273 104 inlet;
#X obj 662 112 inlet;
#X obj 477 28 inlet~;
#X obj 244 621 outlet~;
#X obj 609 454 print;
#X obj 814 156 inlet;
#X text 861 154 reset;
#X msg 814 210 1;
#X connect 0 0 14 0;
#X connect 0 0 17 0;
#X connect 0 0 73 0;
#X connect 3 0 26 0;
#X connect 5 0 24 1;
#X connect 8 0 48 0;
#X connect 9 0 49 0;
#X connect 10 0 61 0;
#X connect 11 0 3 0;
#X connect 12 0 3 0;
#X connect 13 0 3 0;
#X connect 14 0 15 1;
#X connect 15 0 0 0;
#X connect 18 0 21 0;
#X connect 19 0 22 0;
#X connect 20 0 23 0;
#X connect 21 0 22 0;
#X connect 21 1 20 1;
#X connect 22 0 20 0;
#X connect 23 0 24 0;
#X connect 24 0 39 0;
#X connect 26 0 16 0;
#X connect 26 1 15 0;
#X connect 36 0 5 0;
#X connect 37 0 5 0;
#X connect 38 0 5 0;
#X connect 39 0 40 0;
#X connect 41 0 54 0;
#X connect 41 1 53 0;
#X connect 41 2 52 0;
#X connect 41 3 51 0;
#X connect 43 0 72 0;
#X connect 44 0 72 0;
#X connect 45 0 72 0;
#X connect 46 0 72 0;
#X connect 47 0 59 0;
#X connect 48 0 41 0;
#X connect 49 0 41 0;
#X connect 50 0 59 0;
#X connect 51 0 46 0;
#X connect 52 0 45 0;
#X connect 53 0 44 0;
#X connect 54 0 43 0;
#X connect 55 0 57 0;
#X connect 56 0 58 0;
#X connect 57 0 41 0;
#X connect 58 0 41 0;
#X connect 59 0 8 0;
#X connect 59 1 9 0;
#X connect 59 2 56 0;
#X connect 59 3 55 0;
#X connect 59 4 60 0;
#X connect 59 5 10 0;
#X connect 59 6 63 0;
#X connect 59 7 64 0;
#X connect 60 0 62 0;
#X connect 61 0 41 0;
#X connect 62 0 41 0;
#X connect 63 0 65 0;
#X connect 64 0 66 0;
#X connect 65 0 41 0;
#X connect 66 0 41 0;
#X connect 67 0 59 0;
#X connect 68 0 5 0;
#X connect 69 0 59 0;
#X connect 70 0 3 0;
#X connect 71 0 42 0;
#X connect 74 0 76 0;
#X connect 76 0 15 1;
