#N canvas 57 517 450 254 12;
#X obj 40 90 + 6;
#X obj 40 55 inlet;
#X obj 40 173 outlet;
#X obj 135 53 inlet;
#X text 13 28 close harmony;
#X text 140 24 bass;
#X floatatom 123 185 5 0 0 0 - - -;
#X floatatom 194 186 5 0 0 0 - - -;
#X obj 40 141 - 6;
#X obj 135 106 - 12;
#X obj 40 114 % 12;
#X obj 248 59 inlet;
#X floatatom 256 114 5 0 0 0 - - -;
#X text 251 26 high;
#X connect 0 0 10 0;
#X connect 1 0 0 0;
#X connect 3 0 9 0;
#X connect 8 0 2 0;
#X connect 8 0 6 0;
#X connect 9 0 2 0;
#X connect 9 0 7 0;
#X connect 10 0 8 0;
#X connect 11 0 12 0;
#X connect 11 0 2 0;
