#N canvas 31 67 450 300 12;
#X obj 15 51 mrpeach/unpackOSC;
#X floatatom 15 99 5 0 0 0 - - -;
#X obj 15 23 netreceive -u -b 5006;
#X obj 15 75 mrpeach/routeOSC /note1 /note2 /note3 /note4;
#X floatatom 91 99 5 0 0 0 - - -;
#X floatatom 167 99 5 0 0 0 - - -;
#X floatatom 243 99 5 0 0 0 - - -;
#X obj 15 122 outlet;
#X obj 91 122 outlet;
#X obj 167 122 outlet;
#X obj 243 122 outlet;
#X connect 0 0 3 0;
#X connect 1 0 7 0;
#X connect 2 0 0 0;
#X connect 3 0 1 0;
#X connect 3 1 4 0;
#X connect 3 2 5 0;
#X connect 3 3 6 0;
#X connect 4 0 8 0;
#X connect 5 0 9 0;
#X connect 6 0 10 0;
