#N canvas 461 39 885 485 12;
#X obj 91 342 tgl 15 0 empty empty empty 17 7 0 10 -262144 -1 -1 1
1;
#X msg 7 245 disconnect;
#X obj 91 215 mrpeach/packOSC;
#X obj 91 289 mrpeach/udpsend;
#X msg 265 215 connect localhost 5005;
#X floatatom 41 36 5 0 0 0 - - -;
#X obj 41 93 pack f;
#X msg 41 118 send /rootnote \$1;
#X obj 41 59 t f b;
#X obj 91 371 != 1;
#X obj 41 12 inlet;
#X obj 265 190 spigot 1;
#X floatatom 191 36 5 0 0 0 - - -;
#X obj 191 93 pack f;
#X obj 191 59 t f b;
#X obj 191 12 inlet;
#X msg 191 118 send /midinote \$1;
#X connect 0 0 9 0;
#X connect 1 0 3 0;
#X connect 2 0 3 0;
#X connect 3 0 0 0;
#X connect 4 0 3 0;
#X connect 5 0 8 0;
#X connect 6 0 7 0;
#X connect 7 0 2 0;
#X connect 8 0 6 0;
#X connect 8 1 11 0;
#X connect 9 0 11 1;
#X connect 10 0 5 0;
#X connect 11 0 4 0;
#X connect 12 0 14 0;
#X connect 13 0 16 0;
#X connect 14 0 13 0;
#X connect 14 1 11 0;
#X connect 15 0 12 0;
#X connect 16 0 2 0;
