#N canvas 125 170 636 565 12;
#X obj 267 188 random 7;
#X floatatom 267 212 5 0 0 0 - - -;
#X obj 267 166 bng 15 250 50 0 empty empty empty 17 7 0 10 -262144
-1 -1;
#X obj 267 238 sel 0 1 2 3 4 5 6;
#X obj 150 374 spigot;
#X msg 189 339 1;
#X obj 225 377 spigot;
#X msg 264 342 1;
#X obj 321 377 spigot;
#X msg 360 342 1;
#X msg 213 290 0;
#X obj 118 118 t f b b;
#X obj 204 415 close_or_bass;
#X obj 204 454 outlet;
#X obj 118 84 inlet;
#X connect 0 0 1 0;
#X connect 1 0 3 0;
#X connect 2 0 0 0;
#X connect 3 0 5 0;
#X connect 3 1 5 0;
#X connect 3 2 5 0;
#X connect 3 3 5 0;
#X connect 3 4 7 0;
#X connect 3 5 7 0;
#X connect 3 6 9 0;
#X connect 4 0 12 0;
#X connect 5 0 4 1;
#X connect 6 0 12 1;
#X connect 7 0 6 1;
#X connect 8 0 12 2;
#X connect 9 0 8 1;
#X connect 10 0 4 1;
#X connect 10 0 6 1;
#X connect 10 0 8 1;
#X connect 11 0 4 0;
#X connect 11 0 6 0;
#X connect 11 0 8 0;
#X connect 11 1 2 0;
#X connect 11 2 10 0;
#X connect 12 0 13 0;
#X connect 14 0 11 0;
