#N canvas -610 356 450 337 12;
#X obj 129 108 +;
#X obj 147 59 inlet;
#X obj 129 31 r relative_pitch;
#X obj 62 210 pitchshift;
#X floatatom 129 184 5 0 0 0 - - -;
#X obj 63 246 outlet~;
#X obj 63 157 r~ sound_in_chord;
#X floatatom 85 63 5 0 0 0 - - -;
#X floatatom 196 99 5 0 0 0 - - -;
#X connect 0 0 4 0;
#X connect 1 0 0 1;
#X connect 1 0 8 0;
#X connect 2 0 0 0;
#X connect 2 0 7 0;
#X connect 3 0 5 0;
#X connect 4 0 3 1;
#X connect 6 0 3 0;
