#N canvas 245 86 564 734 12;
#X obj 195 684 outlet~;
#X obj 333 679 outlet;
#X floatatom 234 65 5 0 0 0 - - -;
#X text 280 69 sample count - 1;
#X obj 234 142 max;
#X obj 234 173 int;
#X floatatom 234 207 5 0 0 0 - - -;
#X obj 234 35 inlet;
#X obj 284 261 r sample_duration;
#X obj 302 319 r sample_rate;
#X obj 284 290 / 1000;
#X obj 284 347 *;
#X obj 195 276 random;
#X obj 234 237 + 1;
#X obj 127 154 inlet;
#X obj 127 193 bng 15 250 50 0 empty empty empty 17 7 0 10 -262144
-1 -1;
#X obj 194 622 tabread~ mic_sound;
#X obj 195 587 line~;
#X obj 195 401 *;
#X floatatom 195 425 10 0 0 0 - - -;
#X floatatom 284 371 10 0 0 0 - - -;
#X msg 349 117 0;
#X obj 127 221 t b b;
#X text 59 152 trigger;
#X obj 266 532 pack 0 0;
#X obj 330 487 r sample_duration;
#X obj 266 479 +;
#X floatatom 266 502 8 0 0 0 - - -;
#X text 134 424 start;
#X text 331 533 destination & time;
#X obj 273 420 tabread mic_freq;
#X obj 266 556 unpack 0 0;
#X floatatom 333 585 5 0 0 0 - - -;
#X floatatom 266 586 8 0 0 0 - - -;
#X obj 349 39 inlet;
#X text 420 35 reset sample count;
#X connect 2 0 4 0;
#X connect 4 0 5 0;
#X connect 5 0 4 1;
#X connect 5 0 6 0;
#X connect 6 0 13 0;
#X connect 7 0 2 0;
#X connect 8 0 10 0;
#X connect 9 0 11 1;
#X connect 10 0 11 0;
#X connect 11 0 18 1;
#X connect 11 0 20 0;
#X connect 12 0 18 0;
#X connect 12 0 30 0;
#X connect 13 0 12 1;
#X connect 14 0 15 0;
#X connect 15 0 22 0;
#X connect 16 0 0 0;
#X connect 17 0 16 0;
#X connect 18 0 19 0;
#X connect 19 0 17 0;
#X connect 19 0 26 0;
#X connect 20 0 26 1;
#X connect 21 0 5 0;
#X connect 22 1 12 0;
#X connect 24 0 17 0;
#X connect 24 0 31 0;
#X connect 25 0 24 1;
#X connect 26 0 27 0;
#X connect 27 0 24 0;
#X connect 30 0 1 0;
#X connect 31 0 33 0;
#X connect 31 1 32 0;
#X connect 34 0 21 0;
