#N canvas -1102 71 1019 899 12;
#X msg 702 414 resize \$1;
#X floatatom 702 386 12 0 0 0 - - -;
#X msg 778 217 44100;
#X obj 596 106 loadbang;
#X floatatom 690 251 5 0 0 0 - - -;
#X floatatom 623 251 5 0 0 0 - - -;
#X text 622 164 samples:;
#X text 621 189 count;
#X text 690 189 duration;
#X text 774 186 rate;
#X obj 672 318 *;
#X obj 702 352 *;
#X obj 596 130 t b b b;
#X obj 574 108 bng 15 250 50 0 empty empty empty 17 7 0 10 -262144
-1 -1;
#X obj 95 148 env~;
#X floatatom 147 155 5 0 0 0 - - -;
#X text 225 54 treshold;
#X obj 690 284 / 1000;
#X msg 690 219 1000;
#X text 311 54 on/off;
#X obj 191 772 bng 15 250 50 0 empty empty empty 17 7 0 10 -262144
-1 -1;
#X text 209 771 end sample;
#X obj 306 334 tgl 15 0 empty empty empty 17 7 0 10 -262144 -1 -1 0
1;
#X obj 306 305 metro;
#X obj 284 143 tgl 15 0 empty empty empty 17 7 0 10 -262144 -1 -1 0
1;
#X obj 306 366 sel 1;
#X obj 306 428 int;
#X obj 306 464 + 1;
#X floatatom 262 465 5 0 0 0 - - -;
#X obj 306 498 %;
#X obj 562 290 s sample_count;
#X obj 765 285 s sample_duration;
#X obj 338 270 r sample_duration;
#X obj 338 465 r sample_count;
#X msg 262 639 start \$1;
#X obj 262 552 *;
#X obj 778 251 s sample_rate;
#X obj 296 554 r sample_duration;
#X obj 296 578 / 1000;
#X obj 262 603 *;
#X floatatom 340 622 7 0 0 0 - - -;
#X obj 295 526 r sample_rate;
#X obj 191 458 t b b;
#X obj 94 349 tgl 15 0 empty empty empty 17 7 0 10 -262144 -1 -1 0
1;
#X obj 94 773 tgl 15 0 empty empty empty 17 7 0 10 -262144 -1 -1 0
1;
#X text 109 771 recording;
#X obj 284 192 sel 0;
#X msg 284 258 0;
#X obj 95 259 spigot;
#X msg 144 229 0;
#X msg 182 231 1;
#X obj 124 307 bng 15 250 50 0 empty empty empty 17 7 0 10 -262144
-1 -1;
#X obj 95 214 sel 1;
#X text 108 94 start the recording;
#X obj 188 261 spigot;
#X msg 223 639 stop;
#X msg 623 219 2;
#X obj 96 19 inlet~;
#X obj 113 55 s~ sound_in;
#X obj 129 639 r~ sound_in;
#X obj 228 22 inlet;
#X obj 309 21 inlet;
#X obj 518 23 inlet;
#X obj 586 23 inlet;
#X text 526 50 count;
#X text 595 50 duration;
#X obj 233 687 tabwrite~ mic_sound;
#X obj 702 456 array define mic_sound;
#X obj 94 819 outlet;
#X obj 191 819 outlet;
#X obj 303 819 outlet;
#X text 351 772 position;
#X floatatom 509 556 5 0 0 0 - - -;
#X obj 509 588 sel -1500;
#X floatatom 569 621 5 0 0 0 - - -;
#X obj 569 717 bng 15 250 50 0 empty empty empty 17 7 0 10 -262144
-1 -1;
#X obj 569 652 bng 15 250 50 0 empty empty empty 17 7 0 10 -262144
-1 -1;
#X obj 616 756 float;
#X obj 509 526 sigmund~ -hop 8192 pitch env;
#X msg 701 678 0;
#X msg 742 678 1;
#X floatatom 616 801 5 0 0 0 - - -;
#X obj 569 684 delay 80;
#X text 744 102 Array settings;
#X text 174 576 Recording;
#X text 636 566 Frequency finding;
#X obj 508 459 r~ sound_in;
#X obj 509 494 *~;
#X obj 616 836 tabwrite mic_freq;
#X floatatom 303 773 5 0 0 0 - - -;
#X floatatom 732 801 5 0 0 0 - - -;
#X obj 182 510 s position;
#X obj 303 742 r position;
#X obj 732 759 r position;
#X obj 742 653 bng 15 250 50 0 empty empty empty 17 7 0 10 -262144
-1 -1;
#X obj 637 592 array define mic_freq;
#X floatatom 52 188 5 0 0 0 - - -;
#X obj 95 187 > 70;
#X obj 648 718 spigot 1;
#X obj 491 865 s f_current_py;
#X obj 550 831 change;
#X connect 0 0 67 0;
#X connect 1 0 0 0;
#X connect 2 0 11 1;
#X connect 2 0 36 0;
#X connect 3 0 12 0;
#X connect 4 0 17 0;
#X connect 4 0 31 0;
#X connect 5 0 10 0;
#X connect 5 0 30 0;
#X connect 10 0 11 0;
#X connect 11 0 1 0;
#X connect 12 0 56 0;
#X connect 12 1 18 0;
#X connect 12 2 2 0;
#X connect 13 0 12 0;
#X connect 14 0 96 0;
#X connect 14 0 97 0;
#X connect 15 0 97 1;
#X connect 17 0 10 1;
#X connect 18 0 4 0;
#X connect 20 0 69 0;
#X connect 20 0 94 0;
#X connect 22 0 25 0;
#X connect 22 0 43 0;
#X connect 22 0 87 1;
#X connect 23 0 22 0;
#X connect 24 0 46 0;
#X connect 24 0 54 1;
#X connect 25 0 26 0;
#X connect 25 1 42 0;
#X connect 26 0 28 0;
#X connect 26 0 27 0;
#X connect 27 0 29 0;
#X connect 28 0 91 0;
#X connect 28 0 35 0;
#X connect 29 0 26 1;
#X connect 32 0 23 1;
#X connect 33 0 29 1;
#X connect 34 0 66 0;
#X connect 35 0 39 0;
#X connect 37 0 38 0;
#X connect 38 0 39 1;
#X connect 39 0 34 0;
#X connect 39 0 40 0;
#X connect 41 0 35 1;
#X connect 42 0 20 0;
#X connect 42 1 55 0;
#X connect 43 0 44 0;
#X connect 44 0 68 0;
#X connect 46 0 47 0;
#X connect 46 1 50 0;
#X connect 47 0 22 0;
#X connect 47 0 26 1;
#X connect 47 0 23 0;
#X connect 48 0 49 0;
#X connect 48 0 51 0;
#X connect 49 0 48 1;
#X connect 50 0 48 1;
#X connect 51 0 54 0;
#X connect 52 0 48 0;
#X connect 54 0 23 0;
#X connect 55 0 66 0;
#X connect 56 0 5 0;
#X connect 57 0 14 0;
#X connect 57 0 58 0;
#X connect 59 0 66 0;
#X connect 60 0 15 0;
#X connect 61 0 24 0;
#X connect 62 0 5 0;
#X connect 63 0 4 0;
#X connect 72 0 73 0;
#X connect 73 1 74 0;
#X connect 74 0 76 0;
#X connect 74 0 98 0;
#X connect 75 0 79 0;
#X connect 75 0 77 0;
#X connect 76 0 82 0;
#X connect 77 0 81 0;
#X connect 78 0 72 0;
#X connect 79 0 98 1;
#X connect 80 0 98 1;
#X connect 81 0 88 0;
#X connect 81 0 100 0;
#X connect 82 0 75 0;
#X connect 86 0 87 0;
#X connect 87 0 78 0;
#X connect 89 0 70 0;
#X connect 90 0 88 1;
#X connect 92 0 89 0;
#X connect 93 0 90 0;
#X connect 94 0 80 0;
#X connect 97 0 52 0;
#X connect 98 0 77 1;
#X connect 100 0 99 0;
