#N canvas -1564 105 1546 888 12;
#X declare -lib pd_spectral_toolkit;
#X obj 95 209 adc~;
#X floatatom 96 286 5 0 0 0 - - -;
#X floatatom 289 286 5 0 0 0 - - -;
#X obj 96 249 sigmund~ -hop 4096 pitch env;
#X obj 89 562 adc~;
#X obj 89 602 autotuner~;
#X obj 88 662 *~;
#X obj 670 589 pitchshift;
#X obj 672 786 dac~;
#X obj 689 706 tgl 15 0 empty on empty 17 7 0 10 -262130 -1 -1 0 1
;
#X obj 671 741 *~;
#X floatatom 737 535 5 0 0 0 - - -;
#X obj 792 590 pitchshift;
#X obj 794 787 dac~;
#X obj 812 708 tgl 15 0 empty on empty 17 7 0 10 -262130 -1 -1 0 1
;
#X obj 794 743 *~;
#X floatatom 859 537 5 0 0 0 - - -;
#X obj 527 781 dac~;
#X obj 527 724 *~;
#X msg 791 372 4;
#X msg 875 372 7;
#X msg 738 372 3;
#X obj 923 269 bng 15 250 50 0 empty empty empty 17 7 0 10 -262144
-1 -1;
#X obj 790 269 bng 15 250 50 0 empty empty empty 17 7 0 10 -262144
-1 -1;
#X obj 671 668 *~;
#X obj 793 671 *~;
#X obj 731 623 vsl 15 128 0 1 0 1 empty empty empty 0 -9 0 10 -262144
-1 -1 9000 1;
#X obj 867 625 vsl 15 128 0 1 0 1 empty empty empty 0 -9 0 10 -262144
-1 -1 11400 1;
#X obj 77 20 declare -lib pd_spectral_toolkit;
#X obj 919 589 pitchshift;
#X obj 920 790 dac~;
#X obj 946 712 tgl 15 0 empty on empty 17 7 0 10 -262130 -1 -1 0 1
;
#X obj 921 747 *~;
#X obj 920 675 *~;
#X obj 992 621 vsl 15 128 0 1 0 1 empty empty empty 0 -9 0 10 -262144
-1 -1 10600 1;
#X obj 579 634 vsl 15 128 0 1 0 1 empty empty empty 0 -9 0 10 -262144
-1 -1 9200 1;
#X obj 528 633 *~;
#X obj 1090 589 adc~;
#X obj 1089 793 dac~;
#X obj 1090 742 *~;
#X obj 1108 708 tgl 15 0 empty on empty 17 7 0 10 -262130 -1 -1 0 1
;
#X obj 133 640 tgl 15 0 empty empty empty 17 7 0 10 -262144 -1 -1 0
1;
#X msg 408 383 70;
#N canvas 0 50 383 640 nearest_octave 0;
#X obj 88 64 inlet;
#X obj 249 60 inlet;
#X floatatom 88 172 5 0 0 0 - - -;
#X obj 88 364 int;
#X floatatom 88 230 5 0 0 0 - - -;
#X obj 88 258 -;
#X floatatom 88 282 5 0 0 0 - - -;
#X obj 88 205 + 7;
#X obj 88 311 / 12;
#X floatatom 88 339 5 0 0 0 - - -;
#X floatatom 88 430 5 0 0 0 - - -;
#X obj 127 366 < 0;
#X obj 88 399 -;
#X obj 88 461 * 12;
#X obj 88 501 +;
#X floatatom 249 97 5 0 0 0 - - -;
#X obj 88 539 outlet;
#X connect 0 0 2 0;
#X connect 1 0 15 0;
#X connect 2 0 7 0;
#X connect 3 0 12 0;
#X connect 4 0 5 0;
#X connect 5 0 6 0;
#X connect 6 0 8 0;
#X connect 7 0 4 0;
#X connect 8 0 9 0;
#X connect 9 0 3 0;
#X connect 9 0 11 0;
#X connect 10 0 13 0;
#X connect 11 0 12 1;
#X connect 12 0 10 0;
#X connect 13 0 14 0;
#X connect 14 0 16 0;
#X connect 15 0 5 1;
#X connect 15 0 14 1;
#X restore 156 434 pd nearest_octave;
#X floatatom 217 509 5 0 0 0 - - -;
#X floatatom 156 366 5 0 0 0 - - -;
#X obj 96 318 sel -1500;
#X text 217 491 note played;
#X text 286 342 note in;
#X obj 170 398 s note_sang;
#X obj 217 537 s note_played;
#X obj 545 698 tgl 15 0 empty on empty 17 7 0 10 -262130 -1 -1 0 1
;
#X obj 488 696 tgl 20 0 on empty empty 17 7 0 10 -257985 -1 -1 0 1
;
#X obj 1091 656 *~;
#X obj 1144 629 vsl 15 128 0 1 0 1 empty empty empty 0 -9 0 10 -262144
-1 -1 12600 1;
#X floatatom 986 534 5 0 0 0 - - -;
#X obj 88 716 s~ tuned;
#X obj 529 532 r~ tuned;
#X obj 670 533 r~ tuned;
#X obj 792 534 r~ tuned;
#X obj 919 533 r~ tuned;
#X text 550 586 root;
#X text 1143 586 voice;
#N canvas 138 257 481 593 inversion 0;
#X obj 37 52 r note_sang;
#X obj 152 52 r note_played;
#X obj 134 213 -;
#X obj 152 163 +;
#X floatatom 205 88 5 0 0 0 - - -;
#X obj 152 95 f;
#X obj 205 111 t b f;
#X floatatom 134 245 5 0 0 0 - - -;
#X obj 187 319 < -7;
#X obj 134 424 +;
#X floatatom 134 448 5 0 0 0 - - -;
#X obj 187 351 * -12;
#X obj 134 352 * 12;
#X obj 134 384 +;
#X obj 134 279 t f f;
#X obj 134 322 > 8;
#X obj 294 47 inlet;
#X obj 134 481 outlet;
#X connect 0 0 2 0;
#X connect 1 0 5 0;
#X connect 2 0 7 0;
#X connect 3 0 2 1;
#X connect 4 0 6 0;
#X connect 5 0 3 0;
#X connect 6 0 5 1;
#X connect 6 1 3 1;
#X connect 7 0 14 0;
#X connect 8 0 11 0;
#X connect 9 0 10 0;
#X connect 10 0 17 0;
#X connect 11 0 13 1;
#X connect 12 0 13 0;
#X connect 13 0 9 0;
#X connect 14 0 15 0;
#X connect 14 1 8 0;
#X connect 15 0 12 0;
#X connect 16 0 4 0;
#X connect 16 0 9 1;
#X restore 737 496 pd inversion;
#N canvas 138 257 481 593 inversion 0;
#X obj 37 52 r note_sang;
#X obj 152 52 r note_played;
#X obj 134 213 -;
#X obj 152 163 +;
#X floatatom 205 88 5 0 0 0 - - -;
#X obj 152 95 f;
#X obj 205 111 t b f;
#X floatatom 134 245 5 0 0 0 - - -;
#X obj 187 319 < -7;
#X obj 134 424 +;
#X floatatom 134 448 5 0 0 0 - - -;
#X obj 187 351 * -12;
#X obj 134 352 * 12;
#X obj 134 384 +;
#X obj 134 279 t f f;
#X obj 134 322 > 8;
#X obj 294 47 inlet;
#X obj 134 481 outlet;
#X connect 0 0 2 0;
#X connect 1 0 5 0;
#X connect 2 0 7 0;
#X connect 3 0 2 1;
#X connect 4 0 6 0;
#X connect 5 0 3 0;
#X connect 6 0 5 1;
#X connect 6 1 3 1;
#X connect 7 0 14 0;
#X connect 8 0 11 0;
#X connect 9 0 10 0;
#X connect 10 0 17 0;
#X connect 11 0 13 1;
#X connect 12 0 13 0;
#X connect 13 0 9 0;
#X connect 14 0 15 0;
#X connect 14 1 8 0;
#X connect 15 0 12 0;
#X connect 16 0 4 0;
#X connect 16 0 9 1;
#X restore 986 493 pd inversion;
#N canvas 138 257 481 593 inversion 0;
#X obj 37 52 r note_sang;
#X obj 152 52 r note_played;
#X obj 134 213 -;
#X obj 152 163 +;
#X floatatom 205 88 5 0 0 0 - - -;
#X obj 152 95 f;
#X obj 205 111 t b f;
#X floatatom 134 245 5 0 0 0 - - -;
#X obj 187 319 < -7;
#X obj 134 424 +;
#X floatatom 134 448 5 0 0 0 - - -;
#X obj 187 351 * -12;
#X obj 134 352 * 12;
#X obj 134 384 +;
#X obj 134 279 t f f;
#X obj 134 322 > 8;
#X obj 294 47 inlet;
#X obj 134 481 outlet;
#X connect 0 0 2 0;
#X connect 1 0 5 0;
#X connect 2 0 7 0;
#X connect 3 0 2 1;
#X connect 4 0 6 0;
#X connect 5 0 3 0;
#X connect 6 0 5 1;
#X connect 6 1 3 1;
#X connect 7 0 14 0;
#X connect 8 0 11 0;
#X connect 9 0 10 0;
#X connect 10 0 17 0;
#X connect 11 0 13 1;
#X connect 12 0 13 0;
#X connect 13 0 9 0;
#X connect 14 0 15 0;
#X connect 14 1 8 0;
#X connect 15 0 12 0;
#X connect 16 0 4 0;
#X connect 16 0 9 1;
#X restore 859 494 pd inversion;
#X msg 945 372 10;
#X msg 455 383 72;
#X msg 513 383 77;
#X obj 835 268 bng 15 250 50 0 empty empty empty 17 7 0 10 -262144
-1 -1;
#X msg 1001 372 0;
#X text 765 209 minor major 7dom;
#X obj 446 279 int;
#X obj 491 277 + 1;
#X obj 446 303 % 4;
#X obj 446 336 sel 0 1 2 3;
#X msg 351 168 0;
#X obj 1309 372 noise~;
#X floatatom 1139 315 5 0 0 0 - - -;
#X obj 1138 524 dac~;
#X obj 1139 430 *~;
#X msg 1200 418 0;
#X msg 1223 460 1;
#X floatatom 1260 299 5 0 0 0 - - -;
#X obj 1197 260 bng 15 250 50 0 empty empty empty 17 7 0 10 -262144
-1 -1;
#X obj 1200 81 metro 2000;
#X obj 1200 33 tgl 15 0 empty empty empty 17 7 0 10 -262144 -1 -1 0
1;
#X obj 1200 133 int;
#X obj 1245 131 + 1;
#X obj 1200 157 % 4;
#X msg 1141 89 0;
#X obj 1309 500 *~ 0.1;
#X obj 1309 539 dac~;
#X obj 1309 456 *~;
#X msg 1360 463 0;
#X msg 1385 513 1;
#X floatatom 1429 371 5 0 0 0 - - -;
#X obj 1350 311 bng 15 250 50 0 empty empty empty 17 7 0 10 -262144
-1 -1;
#X obj 1346 21 vsl 15 128 0 4000 0 0 empty empty empty 0 -9 0 10 -262144
-1 -1 1300 1;
#X floatatom 1346 157 5 0 0 0 - - -;
#X obj 1204 198 sel 0;
#X obj 1374 409 delay 25;
#X obj 1199 334 delay 40;
#X obj 1139 379 phasor~ 65.4;
#X floatatom 1136 194 5 0 0 0 - - -;
#X obj 1138 485 *~ 0.2;
#X connect 0 0 3 0;
#X connect 1 0 46 0;
#X connect 3 0 1 0;
#X connect 3 1 2 0;
#X connect 4 0 5 0;
#X connect 5 0 6 0;
#X connect 6 0 56 0;
#X connect 7 0 24 0;
#X connect 9 0 10 1;
#X connect 10 0 8 0;
#X connect 10 0 8 1;
#X connect 11 0 7 1;
#X connect 12 0 25 0;
#X connect 14 0 15 1;
#X connect 15 0 13 0;
#X connect 15 0 13 1;
#X connect 16 0 12 1;
#X connect 18 0 17 0;
#X connect 18 0 17 1;
#X connect 19 0 63 0;
#X connect 20 0 65 0;
#X connect 21 0 63 0;
#X connect 22 0 20 0;
#X connect 22 0 19 0;
#X connect 22 0 66 0;
#X connect 23 0 20 0;
#X connect 23 0 21 0;
#X connect 23 0 66 0;
#X connect 24 0 10 0;
#X connect 25 0 15 0;
#X connect 26 0 24 1;
#X connect 27 0 25 1;
#X connect 29 0 33 0;
#X connect 31 0 32 1;
#X connect 32 0 30 0;
#X connect 32 0 30 1;
#X connect 33 0 32 0;
#X connect 34 0 33 1;
#X connect 35 0 36 1;
#X connect 36 0 18 0;
#X connect 37 0 53 0;
#X connect 39 0 38 0;
#X connect 39 0 38 1;
#X connect 40 0 39 1;
#X connect 41 0 6 1;
#X connect 42 0 43 1;
#X connect 43 0 5 1;
#X connect 43 0 44 0;
#X connect 44 0 50 0;
#X connect 45 0 43 0;
#X connect 45 0 49 0;
#X connect 46 1 45 0;
#X connect 51 0 18 1;
#X connect 53 0 39 0;
#X connect 54 0 53 1;
#X connect 55 0 29 1;
#X connect 57 0 36 0;
#X connect 58 0 7 0;
#X connect 59 0 12 0;
#X connect 60 0 29 0;
#X connect 63 0 11 0;
#X connect 64 0 55 0;
#X connect 65 0 16 0;
#X connect 66 0 64 0;
#X connect 67 0 43 1;
#X connect 68 0 43 1;
#X connect 69 0 19 0;
#X connect 69 0 20 0;
#X connect 69 0 70 0;
#X connect 70 0 64 0;
#X connect 72 0 73 0;
#X connect 72 0 74 0;
#X connect 73 0 72 1;
#X connect 74 0 75 0;
#X connect 75 0 69 0;
#X connect 75 0 42 0;
#X connect 75 1 67 0;
#X connect 75 1 22 0;
#X connect 75 2 68 0;
#X connect 75 3 42 0;
#X connect 76 0 72 0;
#X connect 77 0 93 0;
#X connect 78 0 103 0;
#X connect 80 0 105 0;
#X connect 81 0 80 1;
#X connect 82 0 80 1;
#X connect 83 0 102 1;
#X connect 84 0 82 0;
#X connect 84 0 102 0;
#X connect 85 0 87 0;
#X connect 86 0 85 0;
#X connect 86 0 90 0;
#X connect 86 0 76 0;
#X connect 87 0 88 0;
#X connect 87 0 89 0;
#X connect 88 0 87 1;
#X connect 89 0 100 0;
#X connect 89 0 104 0;
#X connect 90 0 87 0;
#X connect 91 0 92 0;
#X connect 91 0 92 1;
#X connect 93 0 91 0;
#X connect 94 0 93 1;
#X connect 95 0 93 1;
#X connect 96 0 101 1;
#X connect 97 0 95 0;
#X connect 97 0 101 0;
#X connect 98 0 99 0;
#X connect 99 0 85 1;
#X connect 100 0 72 0;
#X connect 101 0 94 0;
#X connect 102 0 81 0;
#X connect 103 0 80 0;
#X connect 105 0 79 0;
#X connect 105 0 79 1;
