#N canvas 321 542 377 263 10;
#X obj 45 33 inlet;
#X obj 91 173 i;
#X obj 91 197 outlet;
#X obj 45 57 route bang float;
#X obj 172 33 inlet;
#X obj 118 119 moses 0;
#X obj 157 143 + 0.5;
#X obj 118 143 - 0.5;
#X obj 91 86 t b f;
#X connect 0 0 3 0;
#X connect 1 0 2 0;
#X connect 3 0 1 0;
#X connect 3 1 8 0;
#X connect 4 0 5 0;
#X connect 5 0 7 0;
#X connect 5 1 6 0;
#X connect 6 0 1 1;
#X connect 7 0 1 1;
#X connect 8 0 1 0;
#X connect 8 1 5 0;
